HIERARCHY
ROOT joint_Root
{
	OFFSET 0.0 0.0 0.0
	CHANNELS 6 Xposition Yposition Zposition Zrotation Xrotation Yrotation 
	JOINT Hips
	{
		OFFSET 4.5925 91.4895 -427.239
		CHANNELS 6 Xposition Yposition Zposition Zrotation Xrotation Yrotation 
		JOINT Spine
		{
			OFFSET 15.7357 0.0 0.0
			CHANNELS 6 Xposition Yposition Zposition Zrotation Xrotation Yrotation 
			JOINT Chest
			{
				OFFSET 8.98455 -0.406207 0.0
				CHANNELS 6 Xposition Yposition Zposition Zrotation Xrotation Yrotation 
				JOINT Neck
				{
					OFFSET 16.3773 0.0 0.0
					CHANNELS 6 Xposition Yposition Zposition Zrotation Xrotation Yrotation 
					JOINT Head
					{
						OFFSET 6.45672 0.0 0.0
						CHANNELS 6 Xposition Yposition Zposition Zrotation Xrotation Yrotation 
						End Site
						{
							OFFSET 0.0 0.0 0.0
						}
					}
				}
				JOINT Shoulder_L
				{
					OFFSET 12.9942 -0.242716 4.98039
					CHANNELS 6 Xposition Yposition Zposition Zrotation Xrotation Yrotation 
					JOINT UpperArm_L
					{
						OFFSET 5.34809 0.0 0.0
						CHANNELS 6 Xposition Yposition Zposition Zrotation Xrotation Yrotation 
						JOINT LowerArm_L
						{
							OFFSET 24.3286 1.87007e-05 0.0
							CHANNELS 6 Xposition Yposition Zposition Zrotation Xrotation Yrotation 
							JOINT Hand_L
							{
								OFFSET 22.2916 0.0 0.0
								CHANNELS 6 Xposition Yposition Zposition Zrotation Xrotation Yrotation 
								End Site
								{
									OFFSET 0.0 0.0 0.0
								}
							}
						}
					}
				}
				JOINT Shoulder_R
				{
					OFFSET 12.9945 -0.242716 -4.98039
					CHANNELS 6 Xposition Yposition Zposition Zrotation Xrotation Yrotation 
					JOINT UpperArm_R
					{
						OFFSET -5.34813 0.0 0.0
						CHANNELS 6 Xposition Yposition Zposition Zrotation Xrotation Yrotation 
						JOINT LowerArm_R
						{
							OFFSET -24.3289 0.000322201 0.0
							CHANNELS 6 Xposition Yposition Zposition Zrotation Xrotation Yrotation 
							JOINT Hand_R
							{
								OFFSET -22.2915 -0.000108084 0.0
								CHANNELS 6 Xposition Yposition Zposition Zrotation Xrotation Yrotation 
								End Site
								{
									OFFSET 0.0 0.0 0.0
								}
							}
						}
					}
				}
			}
		}
		JOINT UpperLeg_L
		{
			OFFSET -2.19248 -6.46944 0.0
			CHANNELS 6 Xposition Yposition Zposition Zrotation Xrotation Yrotation 
			JOINT LowerLeg_L
			{
				OFFSET 39.0811 0.0 -1.23785e-05
				CHANNELS 6 Xposition Yposition Zposition Zrotation Xrotation Yrotation 
				JOINT Foot_L
				{
					OFFSET 40.9854 0.0 -1.26872e-05
					CHANNELS 6 Xposition Yposition Zposition Zrotation Xrotation Yrotation 
					JOINT Toes_L
					{
						OFFSET 11.7543 0.0 0.0
						CHANNELS 6 Xposition Yposition Zposition Zrotation Xrotation Yrotation 
						End Site
						{
							OFFSET 0.0 0.0 0.0
						}
					}
				}
			}
		}
		JOINT UpperLeg_R
		{
			OFFSET -2.19251 6.46944 0.0
			CHANNELS 6 Xposition Yposition Zposition Zrotation Xrotation Yrotation 
			JOINT LowerLeg_R
			{
				OFFSET -39.0811 -0.00228153 -0.0401928
				CHANNELS 6 Xposition Yposition Zposition Zrotation Xrotation Yrotation 
				JOINT Foot_R
				{
					OFFSET -40.9854 0.0 0.0
					CHANNELS 6 Xposition Yposition Zposition Zrotation Xrotation Yrotation 
					JOINT Toes_R
					{
						OFFSET -11.7543 0.0 0.0
						CHANNELS 6 Xposition Yposition Zposition Zrotation Xrotation Yrotation 
						End Site
						{
							OFFSET 0.0 0.0 0.0
						}
					}
				}
			}
		}
	}
}
MOTION
Frames:	5
Frame Time:	0.0333333
0.000000 0.000000 0.000000 0.000000 0.000000 -0.000000 1.296450 88.267800 525.166000 -87.287100 -8.345080 174.067000 15.735700 0.000005 -0.000001 50.843600 82.312800 -48.959900 8.984550 -0.406207 -0.000000 4.370990 -9.748390 4.143210 16.377300 -0.000001 -0.000001 -0.044620 -2.928160 0.608369 6.456720 -0.000001 -0.000000 0.783759 1.761610 1.388790 12.994200 -0.242716 4.980390 -88.934200 -3.891540 -74.673400 5.348090 -0.000007 -0.000001 -45.955000 22.664600 -61.593300 24.328600 0.000019 0.000005 5.970930 -1.484140 -103.909000 22.291600 -0.000001 0.000005 9.082430 5.574710 -9.927370 12.994500 -0.242716 -4.980390 89.764800 0.743495 -72.395200 -5.348130 -0.000001 -0.000004 -70.690800 39.820900 38.954000 -24.328900 0.000322 -0.000009 -15.038900 -4.542750 -73.574900 -22.291500 -0.000108 -0.000004 17.799600 5.665050 -16.677100 -2.192480 -6.469440 -0.000000 -174.932000 -5.516520 -1.339720 39.081100 -0.000007 -0.000012 -0.333559 0.681327 26.085900 40.985400 -0.000006 -0.000013 -0.752511 2.105570 -81.280400 11.754300 -0.000000 0.000003 -0.001003 -0.015458 -17.205500 -2.192510 6.469440 -0.000001 -178.503000 5.512780 145.385000 -39.081100 -0.002282 -0.040193 0.107089 -0.021233 78.478200 -40.985400 0.000008 0.000006 1.918850 -7.162030 -53.249100 -11.754300 -0.000006 -0.000006 -0.019200 -0.162818 -23.223700
0.000000 0.000000 0.000000 0.000000 0.000000 -0.000000 1.669830 88.743500 522.621000 -85.472400 -7.687660 173.370000 15.735700 0.000005 -0.000001 46.997300 82.135600 -44.405100 8.984550 -0.406207 -0.000000 4.046920 -10.796700 5.573230 16.377300 -0.000001 -0.000001 0.129811 -1.694140 0.792525 6.456720 -0.000001 -0.000000 0.462796 3.485240 0.919738 12.994200 -0.242716 4.980390 -87.967500 -6.875420 -73.491600 5.348090 -0.000007 -0.000001 -45.205300 15.555400 -67.108500 24.328600 0.000019 0.000005 4.959830 -1.240780 -104.011000 22.291600 -0.000001 0.000005 9.685750 5.557090 -9.042710 12.994500 -0.242716 -4.980390 90.961900 -2.925430 -71.788500 -5.348130 -0.000001 -0.000004 -72.410200 39.680100 43.123300 -24.328900 0.000322 -0.000009 -14.221900 -3.538780 -76.311800 -22.291500 -0.000108 -0.000004 17.882400 5.660390 -16.103000 -2.192480 -6.469440 -0.000000 -173.019000 -6.912540 2.506630 39.081100 -0.000007 -0.000012 -0.005297 0.014439 20.143100 40.985400 -0.000006 -0.000013 2.991140 1.651440 -79.586500 11.754300 -0.000000 0.000003 -0.076276 -0.104762 -17.210900 -2.192510 6.469440 -0.000001 -176.850000 3.070000 140.966000 -39.081100 -0.002282 -0.040193 0.081783 -0.022726 73.898800 -40.985400 0.000008 0.000006 2.642570 -8.825780 -56.838000 -11.754300 -0.000006 -0.000006 -0.019990 -0.167236 -23.405700
0.000000 0.000000 0.000000 0.000000 0.000000 -0.000000 1.906350 88.998800 520.083000 -84.723000 -6.019670 173.076000 15.735700 0.000005 -0.000001 46.365200 81.992000 -43.574000 8.984550 -0.406207 -0.000000 4.168740 -11.123600 5.995990 16.377300 -0.000001 -0.000001 0.030764 -0.406942 0.815741 6.456720 -0.000001 -0.000000 -0.210086 4.712890 1.520660 12.994200 -0.242716 4.980390 -86.923200 -9.457410 -71.886300 5.348090 -0.000007 -0.000001 -46.292300 10.481200 -69.851700 24.328600 0.000019 0.000005 5.637290 -1.377400 -103.688000 22.291600 -0.000001 0.000005 8.483670 5.546730 -8.547630 12.994500 -0.242716 -4.980390 91.690400 -5.267820 -72.179100 -5.348130 -0.000001 -0.000004 -73.187200 38.023600 44.927500 -24.328900 0.000322 -0.000009 -12.868000 -2.850030 -77.719700 -22.291500 -0.000108 -0.000004 17.964600 5.658840 -15.927200 -2.192480 -6.469440 -0.000000 -171.559000 -9.053630 4.834560 39.081100 -0.000007 -0.000012 -0.015402 0.046950 18.161200 40.985400 -0.000006 -0.000013 2.635220 2.953520 -76.159100 11.754300 -0.000000 0.000003 -0.238852 -0.333099 -19.966800 -2.192510 6.469440 -0.000001 -176.377000 1.883230 138.513000 -39.081100 -0.002282 -0.040193 0.065455 -0.027615 66.094200 -40.985400 0.000008 0.000006 1.719160 -7.789150 -59.625500 -11.754300 -0.000006 -0.000006 -0.019751 -0.165905 -23.350900
0.000000 0.000000 0.000000 0.000000 0.000000 -0.000000 2.129190 88.973100 517.373000 -84.800900 -4.670100 172.951000 15.735700 0.000005 -0.000001 47.042300 81.937000 -44.336700 8.984550 -0.406207 -0.000000 4.370240 -11.052300 5.841310 16.377300 -0.000001 -0.000001 -0.199382 0.384522 0.689002 6.456720 -0.000001 -0.000000 -1.305890 5.039960 2.475030 12.994200 -0.242716 4.980390 -86.430900 -10.397800 -70.935000 5.348090 -0.000007 -0.000001 -47.135400 7.837000 -71.180900 24.328600 0.000019 0.000005 7.133690 -1.721920 -103.501000 22.291600 -0.000001 0.000005 7.155160 5.534300 -7.985000 12.994500 -0.242716 -4.980390 91.761000 -5.621320 -72.574100 -5.348130 -0.000001 -0.000004 -72.800900 35.707600 44.688600 -24.328900 0.000322 -0.000009 -11.584100 -2.392740 -78.486200 -22.291500 -0.000108 -0.000004 18.399900 5.657270 -15.757700 -2.192480 -6.469440 -0.000000 -170.963000 -9.382250 6.937700 39.081100 -0.000007 -0.000012 -0.015691 0.049359 17.634500 40.985400 -0.000006 -0.000013 1.159300 4.636940 -73.884100 11.754300 -0.000000 0.000003 -0.014164 -0.132497 -21.981500 -2.192510 6.469440 -0.000001 -175.762000 3.183290 138.028000 -39.081100 -0.002282 -0.040193 0.045826 -0.028816 55.926600 -40.985400 0.000008 0.000006 0.126345 -4.835570 -62.080700 -11.754300 -0.000006 -0.000006 -0.019474 -0.164357 -23.287100
0.000000 0.000000 0.000000 0.000000 0.000000 -0.000000 2.348790 88.500000 514.165000 -85.401400 -3.989140 173.485000 15.735700 0.000005 -0.000001 48.321200 81.698200 -45.815200 8.984550 -0.406207 -0.000000 4.957580 -11.081200 5.499650 16.377300 -0.000001 -0.000001 -0.549554 0.704355 0.445545 6.456720 -0.000001 -0.000000 -2.612320 5.021880 3.002610 12.994200 -0.242716 4.980390 -86.527500 -9.635520 -70.072600 5.348090 -0.000007 -0.000001 -47.366800 8.182750 -70.895000 24.328600 0.000019 0.000005 7.453280 -1.813610 -103.600000 22.291600 -0.000001 0.000005 7.353580 5.525030 -7.578340 12.994500 -0.242716 -4.980390 91.285700 -4.213120 -73.014900 -5.348130 -0.000001 -0.000004 -71.742700 33.276600 42.489200 -24.328900 0.000322 -0.000009 -11.243400 -2.201520 -79.061000 -22.291500 -0.000108 -0.000004 19.207300 5.656360 -15.654000 -2.192480 -6.469440 -0.000000 -170.363000 -9.823150 8.950240 39.081100 -0.000007 -0.000012 -0.019141 0.055561 19.008600 40.985400 -0.000006 -0.000013 0.097215 6.852320 -71.877700 11.754300 -0.000000 0.000003 -0.037402 -0.249595 -26.822600 -2.192510 6.469440 -0.000001 -174.672000 6.684660 139.158000 -39.081100 -0.002282 -0.040193 0.025967 -0.021478 46.594800 -40.985400 0.000008 0.000006 -1.300670 0.177169 -63.028700 -11.754300 -0.000006 -0.000006 -0.020711 -0.171196 -23.568900
